<svg xmlns="http://www.w3.org/2000/svg" viewBox="0 0 100 100">
  <defs>
    <linearGradient id="g" x1="0%" y1="0%" x2="100%" y2="100%">
      <stop offset="0%" stop-color="#F9D976"/>
      <stop offset="100%" stop-color="#D4AF37"/>
    </linearGradient>
  </defs>
  <rect width="100" height="100" rx="20" fill="#0d0d0c"/>
  <path d="M35,34 L40,22 L50,29 L60,22 L65,34 L60,38 L40,38Z" fill="url(#g)"/>
  <path d="M32,40C28,40 26,45 28,52C30,60 36,65 38,70L50,86L62,70C64,65 70,60 72,52C74,45 72,40 68,40L60,44L50,42L40,44Z" fill="#222" stroke="url(#g)" stroke-width="1.5"/>
  <circle cx="43" cy="51" r="1.5" fill="#38BDF8"/>
  <circle cx="57" cy="51" r="1.5" fill="#38BDF8"/>
  <path d="M46,65L50,75L54,65Z" fill="url(#g)"/>
</svg>